<?xml version="1.0" encoding="UTF-8"?>
<svg id="Layer_2" data-name="Layer 2" xmlns="http://www.w3.org/2000/svg" viewBox="0 0 301.9 891.09">
  <defs>
    <style>
      .cls-1 {
        fill: none;
        stroke: #c8268f;
        stroke-miterlimit: 10;
        stroke-width: .5px;
      }
    </style>
  </defs>
  <g id="Layer_1-2" data-name="Layer 1">
    <polygon class="cls-1" points="55.05 51.67 55.05 17.42 27.65 .29 .25 17.42 .25 51.67 27.65 68.79 55.05 51.67"/>
    <polygon class="cls-1" points="164.65 51.67 164.65 17.42 137.25 .29 109.85 17.42 109.85 51.67 137.25 68.79 164.65 51.67"/>
    <polygon class="cls-1" points="219.45 51.67 219.45 17.42 192.05 .29 164.65 17.42 164.65 51.67 192.05 68.79 219.45 51.67"/>
    <polygon class="cls-1" points="137.25 103.04 137.25 68.79 109.85 51.67 82.45 68.79 82.45 103.04 109.85 120.17 137.25 103.04"/>
    <polygon class="cls-1" points="192.05 103.04 192.05 68.79 164.65 51.67 137.25 68.79 137.25 103.04 164.65 120.17 192.05 103.04"/>
    <polygon class="cls-1" points="301.65 103.04 301.65 68.79 274.25 51.67 246.85 68.79 246.85 103.04 274.25 120.17 301.65 103.04"/>
    <polygon class="cls-1" points="109.85 154.42 109.85 120.17 82.45 103.04 55.05 120.17 55.05 154.42 82.45 171.54 109.85 154.42"/>
    <polygon class="cls-1" points="164.65 154.42 164.65 120.17 137.25 103.04 109.85 120.17 109.85 154.42 137.25 171.54 164.65 154.42"/>
    <polygon class="cls-1" points="219.45 154.42 219.45 120.17 192.05 103.04 164.65 120.17 164.65 154.42 192.05 171.54 219.45 154.42"/>
    <polygon class="cls-1" points="137.25 205.79 137.25 171.54 109.85 154.42 82.45 171.54 82.45 205.79 109.85 222.92 137.25 205.79"/>
    <polygon class="cls-1" points="192.05 205.79 192.05 171.54 164.65 154.42 137.25 171.54 137.25 205.79 164.65 222.92 192.05 205.79"/>
    <polygon class="cls-1" points="246.85 205.79 246.85 171.54 219.45 154.42 192.05 171.54 192.05 205.79 219.45 222.92 246.85 205.79"/>
    <polygon class="cls-1" points="164.65 257.17 164.65 222.92 137.25 205.79 109.85 222.92 109.85 257.17 137.25 274.29 164.65 257.17"/>
    <polygon class="cls-1" points="219.45 257.17 219.45 222.92 192.05 205.79 164.65 222.92 164.65 257.17 192.05 274.29 219.45 257.17"/>
    <polygon class="cls-1" points="274.25 257.17 274.25 222.92 246.85 205.79 219.45 222.92 219.45 257.17 246.85 274.29 274.25 257.17"/>
    <polygon class="cls-1" points="82.45 308.54 82.45 274.29 55.05 257.17 27.65 274.29 27.65 308.54 55.05 325.67 82.45 308.54"/>
    <polygon class="cls-1" points="137.25 308.54 137.25 274.29 109.85 257.17 82.45 274.29 82.45 308.54 109.85 325.67 137.25 308.54"/>
    <polygon class="cls-1" points="192.05 308.54 192.05 274.29 164.65 257.17 137.25 274.29 137.25 308.54 164.65 325.67 192.05 308.54"/>
    <polygon class="cls-1" points="246.85 308.54 246.85 274.29 219.45 257.17 192.05 274.29 192.05 308.54 219.45 325.67 246.85 308.54"/>
    <polygon class="cls-1" points="109.85 359.92 109.85 325.67 82.45 308.54 55.05 325.67 55.05 359.92 82.45 377.04 109.85 359.92"/>
    <polygon class="cls-1" points="164.65 359.92 164.65 325.67 137.25 308.54 109.85 325.67 109.85 359.92 137.25 377.04 164.65 359.92"/>
    <polygon class="cls-1" points="219.45 359.92 219.45 325.67 192.05 308.54 164.65 325.67 164.65 359.92 192.05 377.04 219.45 359.92"/>
    <polygon class="cls-1" points="274.25 359.92 274.25 325.67 246.85 308.54 219.45 325.67 219.45 359.92 246.85 377.04 274.25 359.92"/>
    <polygon class="cls-1" points="137.25 411.29 137.25 377.04 109.85 359.92 82.45 377.04 82.45 411.29 109.85 428.42 137.25 411.29"/>
    <polygon class="cls-1" points="192.05 411.29 192.05 377.04 164.65 359.92 137.25 377.04 137.25 411.29 164.65 428.42 192.05 411.29"/>
    <polygon class="cls-1" points="164.65 462.67 164.65 428.42 137.25 411.29 109.85 428.42 109.85 462.67 137.25 479.79 164.65 462.67"/>
    <polygon class="cls-1" points="219.45 462.67 219.45 428.42 192.05 411.29 164.65 428.42 164.65 462.67 192.05 479.79 219.45 462.67"/>
    <polygon class="cls-1" points="274.25 462.67 274.25 428.42 246.85 411.29 219.45 428.42 219.45 462.67 246.85 479.79 274.25 462.67"/>
    <polygon class="cls-1" points="82.45 514.04 82.45 479.79 55.05 462.67 27.65 479.79 27.65 514.04 55.05 531.17 82.45 514.04"/>
    <polygon class="cls-1" points="192.05 514.04 192.05 479.79 164.65 462.67 137.25 479.79 137.25 514.04 164.65 531.17 192.05 514.04"/>
    <polygon class="cls-1" points="164.65 565.42 164.65 531.17 137.25 514.04 109.85 531.17 109.85 565.42 137.25 582.54 164.65 565.42"/>
    <polygon class="cls-1" points="219.45 565.42 219.45 531.17 192.05 514.04 164.65 531.17 164.65 565.42 192.05 582.54 219.45 565.42"/>
    <polygon class="cls-1" points="82.45 616.79 82.45 582.54 55.05 565.42 27.65 582.54 27.65 616.79 55.05 633.92 82.45 616.79"/>
    <polygon class="cls-1" points="137.25 616.79 137.25 582.54 109.85 565.42 82.45 582.54 82.45 616.79 109.85 633.92 137.25 616.79"/>
    <polygon class="cls-1" points="192.05 616.79 192.05 582.54 164.65 565.42 137.25 582.54 137.25 616.79 164.65 633.92 192.05 616.79"/>
    <polygon class="cls-1" points="55.05 668.17 55.05 633.92 27.65 616.79 .25 633.92 .25 668.17 27.65 685.29 55.05 668.17"/>
    <polygon class="cls-1" points="109.85 668.17 109.85 633.92 82.45 616.79 55.05 633.92 55.05 668.17 82.45 685.29 109.85 668.17"/>
    <polygon class="cls-1" points="164.65 668.17 164.65 633.92 137.25 616.79 109.85 633.92 109.85 668.17 137.25 685.29 164.65 668.17"/>
    <polygon class="cls-1" points="274.25 668.17 274.25 633.92 246.85 616.79 219.45 633.92 219.45 668.17 246.85 685.29 274.25 668.17"/>
    <polygon class="cls-1" points="82.45 719.54 82.45 685.29 55.05 668.17 27.65 685.29 27.65 719.54 55.05 736.67 82.45 719.54"/>
    <polygon class="cls-1" points="137.25 719.54 137.25 685.29 109.85 668.17 82.45 685.29 82.45 719.54 109.85 736.67 137.25 719.54"/>
    <polygon class="cls-1" points="164.65 770.92 164.65 736.67 137.25 719.54 109.85 736.67 109.85 770.92 137.25 788.04 164.65 770.92"/>
    <polygon class="cls-1" points="219.45 770.92 219.45 736.67 192.05 719.54 164.65 736.67 164.65 770.92 192.05 788.04 219.45 770.92"/>
    <polygon class="cls-1" points="137.25 822.29 137.25 788.04 109.85 770.92 82.45 788.04 82.45 822.29 109.85 839.42 137.25 822.29"/>
    <polygon class="cls-1" points="192.05 822.29 192.05 788.04 164.65 770.92 137.25 788.04 137.25 822.29 164.65 839.42 192.05 822.29"/>
    <polygon class="cls-1" points="246.85 822.29 246.85 788.04 219.45 770.92 192.05 788.04 192.05 822.29 219.45 839.42 246.85 822.29"/>
    <polygon class="cls-1" points="55.05 873.67 55.05 839.42 27.65 822.29 .25 839.42 .25 873.67 27.65 890.79 55.05 873.67"/>
    <polygon class="cls-1" points="164.65 873.67 164.65 839.42 137.25 822.29 109.85 839.42 109.85 873.67 137.25 890.79 164.65 873.67"/>
    <polygon class="cls-1" points="219.45 873.67 219.45 839.42 192.05 822.29 164.65 839.42 164.65 873.67 192.05 890.79 219.45 873.67"/>
  </g>
</svg>